<svg width="409" height="408" viewBox="0 0 409 408" fill="none" xmlns="http://www.w3.org/2000/svg">
<path d="M0 100C0 44.7715 44.7715 0 100 0H204.16V408H99.9999C44.7715 408 0 363.228 0 308V100Z" fill="#9FA273"/>
<path d="M204.16 0H308.32C363.548 0 408.32 44.7715 408.32 100V308C408.32 363.228 363.548 408 308.32 408H204.16V0Z" fill="#93956B"/>
<path d="M408.425 195.353L363.925 156L204.742 292.283L203.425 408H308.425C363.654 408 408.425 363.229 408.425 308V195.353Z" fill="#81865E"/>
<path d="M65.425 172.5V264.5L204.425 155.5L129.925 89L87.925 124.5V104H65.425V144.5L34.425 172.5H65.425Z" fill="#ECECE2"/>
<path d="M204.925 155.5L130.425 89V214.189L204.925 155.5Z" fill="#D9DBC5"/>
<path d="M110.425 175V230L149.425 199.5V175H110.425Z" fill="#8F9169"/>
<path d="M149.425 199.5L129.425 215.141V175H149.425V199.5Z" fill="#81865D"/>
<path d="M204.925 342.5L65.425 264.5L204.925 155.5V342.5Z" fill="#ADB18E"/>
<path d="M343.425 316.5L248.425 330.5L330.425 297.5V131.5H343.425V316.5Z" fill="#E6E6DA"/>
<path d="M363.925 342H234.925L353.425 326V156H363.925V342Z" fill="#E6E6DA"/>
<path d="M204.925 399.5L65.425 262L204.925 340V399.5Z" fill="#7A8157"/>
<path d="M320.925 290L204.925 342V155.5L319.925 106.5L320.925 290ZM227.425 274C226.32 274 225.425 274.895 225.425 276V282C225.425 283.105 226.32 284 227.425 284H264.425C265.53 284 266.425 283.105 266.425 282V276C266.425 274.895 265.53 274 264.425 274H227.425ZM227.425 250C226.32 250 225.425 250.895 225.425 252V258C225.425 259.105 226.32 260 227.425 260H301.925C303.03 260 303.925 259.105 303.925 258V252C303.925 250.895 303.03 250 301.925 250H227.425ZM227.425 226C226.32 226 225.425 226.895 225.425 228V234C225.425 235.105 226.32 236 227.425 236H301.925C303.03 236 303.925 235.105 303.925 234V228C303.925 226.895 303.03 226 301.925 226H227.425ZM227.425 202C226.32 202 225.425 202.895 225.425 204V210C225.425 211.105 226.32 212 227.425 212H301.925C303.03 212 303.925 211.105 303.925 210V204C303.925 202.895 303.03 202 301.925 202H227.425ZM227.425 178C226.32 178 225.425 178.895 225.425 180V186C225.425 187.105 226.32 188 227.425 188H301.925C303.03 188 303.925 187.105 303.925 186V180C303.925 178.895 303.03 178 301.925 178H227.425ZM265.425 154C264.32 154 263.425 154.895 263.425 156V162C263.425 163.105 264.32 164 265.425 164H302.425C303.53 164 304.425 163.105 304.425 162V156C304.425 154.895 303.53 154 302.425 154H265.425Z" fill="#F2F4E6"/>
</svg>
